<svg width="1084" height="178" xmlns="http://www.w3.org/2000/svg" class="icon">
 <defs>
  <style type="text/css"/>
 </defs>
 <g>
  <title>background</title>
  <rect fill="none" id="canvas_background" height="180" width="1086" y="-1" x="-1"/>
 </g>
 <g>
  <title>Layer 1</title>
  <defs>
   <style type="text/css"/>
  </defs>
  <g stroke="null" id="svg_88">
   <path stroke="null" id="svg_46" fill="#FFFFFF" d="m56.590089,148.169456c-6.127718,-4.856364 -9.372015,-11.599229 -9.660142,-17.603053c-0.426425,-8.889406 1.627191,-19.197112 6.160853,-30.92384a17.934398,17.934398 0 0 1 1.586134,-0.237702c11.473896,-1.206529 21.921341,8.720852 23.335321,22.172731c1.413256,13.45188 -6.741429,25.334195 -18.214603,26.540003a18.04821,18.04821 0 0 1 -3.207562,0.051861z"/>
   <path stroke="null" id="svg_47" fill="#5DE4C7" d="m58.679003,171.302368l7.304711,0a7.203149,7.203149 0 0 0 6.719097,-4.606413l10.27169,-26.576016c0.145504,-0.375284 0.258595,-0.763535 0.339271,-1.158267c0.794507,-3.897623 -1.721555,-7.701606 -5.619899,-8.496113l-12.92605,-2.635633l-0.13614,-0.025931c-3.91275,-0.718875 -7.66775,1.869938 -8.386625,5.781967l-4.540864,24.706799l-10.404228,1.981586a6.093865,6.093865 0 0 0 -4.952885,5.985819a5.042205,5.042205 0 0 0 5.042202,5.042202l17.289719,0z"/>
   <path stroke="null" id="svg_48" fill="#524F75" d="m49.845782,156.447315l4.273628,-23.251043c0.934967,-5.086865 5.815823,-8.452174 10.902685,-7.517207l0.177197,0.033856l12.926771,2.634912c5.067415,1.032931 8.338366,5.977893 7.306153,11.045308a9.520401,9.520401 0 0 1 -0.440833,1.506178l-10.273129,26.576737a9.366255,9.366255 0 0 1 -8.73454,5.987255l-24.59443,0c-3.978299,0 -7.203149,-3.225568 -7.203149,-7.203146c0,-3.963172 2.816433,-7.367382 6.709733,-8.108586l8.949914,-1.704265zm16.137932,12.69411a5.040763,5.040763 0 0 0 4.702937,-3.224849l10.272411,-26.576016a5.042205,5.042205 0 0 0 -3.695937,-6.758716l-12.926771,-2.63347c-2.834438,-0.522228 -5.462146,1.290083 -5.966366,4.028721l-4.808102,26.161834l-11.857103,2.258186a3.932918,3.932918 0 0 0 -3.196759,3.863052a2.881258,2.881258 0 0 0 2.881258,2.881258l24.594433,0l-0.000003,0z"/>
   <path stroke="null" id="svg_49" fill="#524F75" d="m38.940216,168.354839l4.421293,-1.117209a2.160944,2.160944 0 0 0 -1.059585,-4.190789l-4.421293,1.117927a2.160944,2.160944 0 1 0 1.059585,4.190071z"/>
   <path stroke="null" id="svg_50" fill="#5DE4C7" d="m90.370696,171.302368l6.370465,0a7.203149,7.203149 0 0 0 7.175055,-6.569991l1.515543,-17.173747a7.211792,7.211792 0 0 0 -0.422104,-3.136972c-1.383005,-3.72979 -5.527695,-5.632142 -9.257486,-4.249858l-9.326637,3.457511a7.202428,7.202428 0 0 0 -4.698614,6.753675l0,8.365015l-8.012783,1.526347a6.093865,6.093865 0 0 0 -4.952885,5.985819a5.042205,5.042205 0 0 0 5.042205,5.042202l16.567241,0z"/>
   <path stroke="null" id="svg_51" fill="#524F75" d="m79.565974,156.960181l0,-6.577195c0,-3.916352 2.436823,-7.419244 6.108268,-8.779918l9.325916,-3.457513c4.849159,-1.797905 10.237837,0.675655 12.035021,5.525535c0.483333,1.302329 0.670613,2.694699 0.54888,4.077702l-1.51554,17.173747a9.364092,9.364092 0 0 1 -9.327358,8.540773l-22.937706,0c-3.978299,0 -7.203149,-3.225568 -7.203149,-7.203146c0,-3.963172 2.81643,-7.367382 6.709733,-8.108586l6.255935,-1.191399zm17.175186,12.181244a5.042205,5.042205 0 0 0 5.022755,-4.599211l1.514822,-17.173747a5.042205,5.042205 0 0 0 -6.775282,-5.17114l-9.325195,3.457513a5.042205,5.042205 0 0 0 -3.290399,4.728147l0,10.153558l-9.76891,1.860573a3.932918,3.932918 0 0 0 -3.196759,3.863049a2.881258,2.881258 0 0 0 2.881261,2.881258l22.937706,0z"/>
   <path stroke="null" id="svg_52" fill="#524F75" d="m71.354383,168.354839l4.421293,-1.117209a2.160944,2.160944 0 0 0 -1.059583,-4.190789l-4.421293,1.117927a2.160944,2.160944 0 1 0 1.059583,4.190071z"/>
   <path stroke="null" id="svg_53" fill="#5DE4C7" d="m14.273753,106.087942l0.800991,5.01123a7.20387,7.20387 0 0 0 5.985816,5.977172c2.112682,0.334948 3.691614,0.470366 4.738229,0.40698c1.567407,-0.095082 3.789577,-0.93497 6.665794,-2.519662a2.158784,2.158784 0 0 0 1.115767,-1.98663l-0.059784,-1.367876c5.510408,0.93857 10.426556,1.641597 14.748446,2.110521c5.011951,0.544559 13.047062,2.731434 24.106055,6.561347a2.160944,2.160944 0 0 0 2.868294,-2.04137l0,-22.617167a2.160944,2.160944 0 0 0 -2.410174,-2.146538l-40.936932,4.755517l-2.742958,-0.918401l-0.207451,-3.581405a3.379718,3.379718 0 0 0 -3.373956,-3.183792a3.692335,3.692335 0 0 0 -3.653437,3.15498l-0.531592,3.609498c-0.620909,0 -1.223095,0.077792 -1.798626,0.224736l-10.062797,0.50062a3.956689,3.956689 0 0 0 -3.760044,3.950926a3.915631,3.915631 0 0 0 3.761483,3.91275l4.746876,0.186562z"/>
   <path stroke="null" id="svg_54" fill="#524F75" d="m9.442602,108.060885a6.076575,6.076575 0 0 1 -5.837433,-6.072255a6.117633,6.117633 0 0 1 5.813663,-6.10971l9.86111,-0.490535c0.071312,-0.015848 0.141902,-0.031693 0.213211,-0.046099l0.287407,-1.954934a5.853999,5.853999 0 0 1 5.791331,-5.001147a5.540662,5.540662 0 0 1 5.531298,5.219402l0.123176,2.121325l0.899672,0.301091l40.458644,-4.699332a4.32189,4.32189 0 0 1 4.820348,4.293076l0,22.617167a4.32189,4.32189 0 0 1 -5.736586,4.083464c-10.915652,-3.780933 -18.82327,-5.933234 -23.63209,-6.455461c-3.715384,-0.402657 -7.857917,-0.976028 -12.428313,-1.720831a4.319727,4.319727 0 0 1 -2.100439,2.709823c-3.13337,1.725876 -5.616294,2.664445 -7.578433,2.784016c-1.23678,0.074914 -2.95257,-0.073472 -5.207157,-0.430748a9.364092,9.364092 0 0 1 -7.781561,-7.770036l-0.521507,-3.262305l-2.97634,-0.115971zm21.919899,3.641912a2.160944,2.160944 0 0 1 2.521104,-2.224333c5.469351,0.932086 10.343002,1.629351 14.61879,2.092513c5.215079,0.56617 13.378408,2.788339 24.580745,6.668675l0,-22.617164l-40.936935,4.754798a2.143657,2.143657 0 0 1 -0.934967,-0.097963l-2.742958,-0.916962a2.161665,2.161665 0 0 1 -1.471604,-1.92468l-0.208172,-3.581405a1.218772,1.218772 0 0 0 -1.216612,-1.148181c-0.75993,0 -1.404613,0.556802 -1.515543,1.30881l-0.530871,3.61094a2.160226,2.160226 0 0 1 -2.137894,1.845446c-0.43219,0 -0.855733,0.053303 -1.264874,0.157747c-0.139739,0.036016 -0.282362,0.057627 -0.426425,0.064828l-10.063521,0.499899a1.795024,1.795024 0 0 0 -1.706425,1.792864a1.753966,1.753966 0 0 0 1.685536,1.753245l4.746876,0.187283a2.160226,2.160226 0 0 1 2.049295,1.817355l0.800991,5.01123a5.043644,5.043644 0 0 0 4.190071,4.184309c1.970061,0.312616 3.413572,0.435789 4.269308,0.383928c1.174112,-0.070591 3.134809,-0.811794 5.753155,-2.254587l-0.059066,-1.368597l-0.000003,0z"/>
   <path stroke="null" id="svg_55" fill="#524F75" d="m14.323454,108.343968l5.763959,0a2.160944,2.160944 0 1 0 0,-4.321887l-5.763959,0a2.160944,2.160944 0 0 0 0,4.321887z"/>
   <path stroke="null" id="svg_56" fill="#FFC48B" d="m103.591353,33.664605c1.572449,3.085829 -2.171747,8.981607 -11.230428,17.687331l-9.370576,-18.392519c12.162517,-2.615465 19.029279,-2.380641 20.601004,0.705188z"/>
   <path stroke="null" id="svg_57" fill="#524F75" d="m101.781923,34.855286c-0.759212,-1.627191 -6.008147,-2.125648 -15.445712,-0.672774l6.276104,13.458363c7.02091,-6.608891 9.944668,-11.122382 9.169608,-12.78559zm3.916352,-1.825999c2.076668,4.452986 -2.21857,10.722606 -12.356281,19.807217a2.160944,2.160944 0 0 1 -3.400608,-0.695823l-8.723733,-18.708016a2.160944,2.160944 0 0 1 1.578211,-3.04045c13.303494,-2.379199 20.805574,-1.859852 22.902411,2.637072z"/>
   <path stroke="null" id="svg_58" fill="#FFC48B" d="m108.599702,51.3116c1.377243,2.823635 -2.111961,8.112906 -10.466893,15.867095l-8.20871,-16.833037c11.072681,-2.179673 17.298362,-1.857692 18.675602,0.965942z"/>
   <path stroke="null" id="svg_59" fill="#524F75" d="m97.776251,63.199674c3.282476,-2.505974 5.713539,-4.691409 7.281665,-6.533253c1.608462,-1.890106 2.114124,-3.166505 1.916037,-3.742036c-0.190882,-0.552482 -1.326821,-1.194283 -3.703138,-1.612067c-2.351829,-0.41274 -5.594687,-0.529429 -9.704802,-0.339268l4.210239,12.226624zm13.284047,-11.682786c1.495375,4.342059 -3.011636,9.634933 -13.099645,16.928119a2.160944,2.160944 0 0 1 -3.309125,-1.048058l-6.097467,-17.7075a2.160944,2.160944 0 0 1 1.886504,-2.85893c12.329629,-0.89175 19.109234,0.29821 20.619733,4.686368z"/>
   <path stroke="null" id="svg_60" fill="#FFC48B" d="m112.619062,70.228507c1.022845,2.971299 -3.08511,7.795249 -12.322428,14.473289l-6.097464,-17.707503c11.256359,-0.814676 17.397044,0.263636 18.419892,3.234214z"/>
   <path stroke="null" id="svg_61" fill="#524F75" d="m108.416745,75.170588c1.85625,-1.64736 2.534068,-2.840922 2.418096,-3.438784c-0.111648,-0.573371 -1.148184,-1.367157 -3.442386,-2.111242c-2.270432,-0.736163 -5.465748,-1.30305 -9.5629,-1.686978l2.4678,12.69411c3.597974,-2.024804 6.309957,-3.850803 8.11939,-5.457105zm6.660029,-4.263546c0.876626,4.507731 -4.32333,9.122791 -15.32758,14.940771a2.161665,2.161665 0 0 1 -3.131928,-1.498253l-3.573482,-18.383875a2.160944,2.160944 0 0 1 2.266111,-2.567924c12.333228,0.831966 18.881612,2.954012 19.766878,7.509284l0,-0.000003z"/>
   <path stroke="null" id="svg_62" fill="#FFC48B" d="m114.943518,84.417991c1.597655,2.556396 -0.884548,7.754909 -7.444456,15.594094l-9.521843,-15.236818c9.713446,-2.794823 15.36864,-2.913675 16.966299,-0.357276z"/>
   <path stroke="null" id="svg_63" fill="#524F75" d="m112.355426,89.182872c0.885266,-2.032726 0.981788,-3.27167 0.649003,-3.765085c-0.318379,-0.472527 -1.444231,-0.807471 -3.587167,-0.6879c-2.066583,0.115971 -4.789376,0.659089 -8.145321,1.633675l6.72702,9.972759c2.065143,-2.834438 3.518018,-5.226604 4.356465,-7.153447zm4.23185,-6.181022c2.467798,3.657039 -0.09148,9.53697 -6.982012,18.381715a2.161665,2.161665 0 0 1 -3.496408,-0.119571l-10.047673,-14.896114a2.160944,2.160944 0 0 1 1.122972,-3.263026c10.574221,-3.446707 16.90939,-3.801102 19.403121,-0.103005z"/>
   <path stroke="null" id="svg_64" fill="#FFC48B" d="m123.34527,93.548701c2.366953,1.421903 2.503093,6.696766 0.408416,15.823877l-14.106645,-8.476666c6.765917,-6.320764 11.331273,-8.769832 13.698229,-7.347211z"/>
   <path stroke="null" id="svg_65" fill="#524F75" d="m123.088836,98.729206c0.016569,-1.975103 -0.324862,-2.997951 -0.717433,-3.253661c-0.372403,-0.241308 -1.379403,-0.128217 -3.092312,0.71527c-1.643036,0.808913 -3.668561,2.181115 -6.054246,4.113l8.813774,5.723622c0.684298,-3.000832 1.032931,-5.440539 1.050218,-7.298231zm1.635835,-6.877566c3.487767,2.264669 3.434464,8.19358 0.767859,18.196592a2.160944,2.160944 0 0 1 -3.265189,1.255509l-13.802672,-8.962877a2.160226,2.160226 0 0 1 -0.242026,-3.441665c7.746987,-6.747188 13.013927,-9.338883 16.542028,-7.047559z"/>
   <path stroke="null" id="svg_66" fill="#FFC48B" d="m137.372681,93.653148c2.555678,0.314055 4.671962,4.755517 6.350296,13.325823l-15.23394,-1.870656c3.366752,-7.950836 6.327247,-11.769225 8.883643,-11.455167z"/>
   <path stroke="null" id="svg_67" fill="#524F75" d="m138.865172,98.078761c-0.829803,-1.594777 -1.524184,-2.253866 -1.89875,-2.287001c-0.106607,-0.009362 -0.27876,0.043939 -0.562564,0.238426c-0.444436,0.304691 -0.968103,0.85141 -1.540035,1.643757c-0.968103,1.343387 -2.003194,3.288957 -3.090149,5.825188l9.35617,0.818996c-0.731121,-2.665163 -1.490333,-4.749754 -2.264672,-6.239366zm-1.522023,-6.593043c3.95741,0.346472 6.528933,5.290714 8.729495,14.759974a2.161665,2.161665 0 0 1 -2.294202,2.642114l-15.290845,-1.337624a2.160944,2.160944 0 0 1 -1.829598,-2.9252c3.450309,-9.011137 6.679479,-13.489335 10.685151,-13.139263z"/>
   <path stroke="null" id="svg_68" fill="#5DE4C7" d="m38.412944,27.426678c8.592637,-3.522339 18.449425,-4.379514 29.76557,0s24.345924,23.08321 28.806114,39.878792c1.365715,5.143047 2.029124,9.97564 1.99023,14.498498c-0.121013,13.844451 10.352363,25.487622 24.131986,26.826685c4.993225,0.485493 18.093591,-3.998467 27.237986,-12.143067c3.222689,-3.722589 5.245333,-5.383633 6.070094,-4.982418c1.236059,0.601462 0.375284,4.538703 0.22978,4.982418c-4.787212,14.652643 -9.138633,19.825226 -14.66345,24.729128s-11.857103,9.349689 -18.87441,12.335394c-2.81643,7.94075 -14.160669,15.114366 -23.171088,17.980497s-16.661602,4.043127 -29.817432,2.409453s-22.665429,-12.448482 -23.189096,-23.374937c-0.557526,-11.62516 2.993628,-25.448724 10.654176,-41.471406a2.159505,2.159505 0 0 0 -1.756127,-3.084389c-15.283641,-1.374359 -24.613159,-3.311288 -27.987836,-5.8115c-7.602922,-5.634302 -10.220547,-13.570011 -10.220547,-23.484425c0,-14.218296 12.201415,-25.767103 20.794049,-29.288723z"/>
   <path stroke="null" id="svg_69" fill="#524F75" d="m38.412944,27.426678c-8.592635,3.521621 -20.794049,15.070427 -20.794049,29.288723c0,9.914414 2.617625,17.850123 10.220547,23.483704c3.374677,2.500215 12.704195,4.437862 27.987836,5.8115a2.160944,2.160944 0 0 1 1.756127,3.084389c-7.660548,16.022685 -11.211702,29.846967 -10.654176,41.471409c0.524388,10.926455 10.033985,21.741263 23.189096,23.374937s20.807013,0.456679 29.817432,-2.409453s20.354658,-10.03975 23.171088,-17.9805c7.017308,-2.985705 13.348875,-7.431489 18.87441,-12.335391s9.876958,-10.076484 14.66345,-24.729131c0.144783,-0.443715 1.005561,-4.380953 -0.22978,-4.982418c-0.824761,-0.401215 -2.847405,1.259832 -6.070094,4.982418c-9.144395,8.145321 -22.245482,12.62856 -27.237986,12.143067c-13.779623,-1.339064 -24.253002,-12.982234 -24.131986,-26.826685c0.039616,-4.522855 -0.624514,-9.355449 -1.990233,-14.498498c-4.460187,-16.794861 -17.489963,-35.498557 -28.806111,-39.878071s-21.172933,-3.522339 -29.76557,0zm113.12473,61.682723c0.781541,-0.641801 1.516982,-1.130894 2.285559,-1.470883c1.406773,-0.622351 2.925918,-0.77722 4.48324,-0.019447c1.754687,0.853573 2.593852,2.328777 2.926639,4.019357c0.169993,0.861496 0.194485,1.755406 0.126775,2.722069c-0.088599,1.244705 -0.363038,2.725671 -0.606506,3.469035c-4.457309,13.645646 -8.568864,20.111193 -15.903111,26.619958c-5.88209,5.219402 -12.019173,9.406592 -18.434298,12.362764c-3.91275,8.047357 -14.469686,15.435626 -25.169964,18.838394c-10.601593,3.372514 -18.891697,4.165579 -31.659997,2.579449c-14.741245,-1.83104 -26.325347,-13.942414 -26.973632,-27.456962c-0.562564,-11.728167 2.721351,-25.295297 9.766749,-40.748213c-14.329944,-1.429825 -23.114903,-3.391961 -27.11265,-6.353896c-8.370059,-6.201193 -11.969475,-15.009922 -11.969475,-26.955624c0,-7.655507 2.997951,-15.014243 8.135238,-21.371741c4.3471,-5.380034 10.057034,-9.750183 15.341265,-11.916171c10.428719,-4.275067 21.389031,-4.512052 32.96521,-0.031693c12.575257,4.867168 26.543602,24.427318 31.423736,42.80039c1.461518,5.503204 2.176792,10.718283 2.134292,15.645958c-0.101566,11.604273 8.678355,21.363818 20.228604,22.487511c4.516372,0.43867 16.371314,-4.427055 23.745177,-10.891163c1.671851,-1.919639 3.075025,-3.350904 4.267145,-4.329092l0.000003,0z"/>
   <path stroke="null" id="svg_70" fill="#44756A" d="m25.542358,61.814509a2.160944,2.160944 0 0 1 2.160947,2.160947l0,4.321887a2.160944,2.160944 0 1 1 -4.32189,0l0,-4.321887a2.160944,2.160944 0 0 1 2.160944,-2.160947zm10.08441,0a2.160944,2.160944 0 0 1 2.160944,2.160947l0,4.321887a2.160944,2.160944 0 1 1 -4.32189,0l0,-4.321887a2.160944,2.160944 0 0 1 2.160947,-2.160947z"/>
   <path stroke="null" id="svg_71" fill="#524F75" d="m52.327985,90.030683c3.147057,0.328464 5.722183,0.328464 7.75563,-0.018729c6.21848,-1.063903 8.164771,-1.791422 11.929856,-4.993222a2.160944,2.160944 0 1 0 -2.799864,-3.292559c-3.062779,2.604658 -4.336296,3.080066 -9.859671,4.025119c-1.589015,0.271559 -3.791016,0.271559 -6.577913,-0.019447a2.160944,2.160944 0 1 0 -0.448038,4.298838z"/>
   <path stroke="null" id="svg_72" fill="#FFFFFF" d="m56.590089,148.169456c-6.127718,-4.856364 -9.372736,-11.599229 -9.660864,-17.603053c-0.425704,-8.889406 1.627191,-19.197112 6.160853,-30.923119a17.934398,17.934398 0 0 1 1.586134,-0.237702c11.473896,-1.206529 21.921344,8.720852 23.335321,22.172731c1.413256,13.45188 -6.741426,25.334195 -18.214603,26.54c-1.080472,0.11309 -2.151579,0.128217 -3.206841,0.051143z"/>
   <path stroke="null" id="svg_73" fill="#FFF185" d="m52.2185,24.0412l-11.728167,-0.914802c5.696249,-12.703471 14.777979,-18.048928 27.243027,-16.03637c12.465769,2.01184 18.295277,10.649134 17.487805,25.911886l-16.037091,0c-0.165673,-9.753783 -2.341022,-15.151101 -6.527494,-16.193396c-4.186469,-1.041577 -7.66559,1.368597 -10.438081,7.232682z"/>
   <path stroke="null" id="svg_74" fill="#524F75" d="m63.178088,14.711682c5.089025,1.266313 7.626695,6.783205 8.09634,16.129289l11.857103,0c0.165673,-12.916685 -5.006189,-19.885012 -15.74248,-21.61809c-10.518039,-1.697061 -18.247736,2.200562 -23.552856,11.996845l7.106627,0.554642c3.103116,-5.754594 7.252129,-8.303068 12.235265,-7.062686zm-25.915485,10.330035l1.255509,-2.799864c6.084497,-13.566409 16.093993,-19.458585 29.559558,-17.285395c13.642044,2.202001 20.163054,11.865025 19.300838,28.159989l-0.108767,2.046414l-20.210595,0l-0.036013,-2.124209c-0.150546,-8.871398 -1.979426,-13.408662 -4.888778,-14.133297c-3.01668,-0.750569 -5.583159,1.027168 -7.96164,6.059288l-0.63676,1.346989l-16.273351,-1.269915z"/>
   <path stroke="null" id="svg_75" fill="#FFF185" d="m79.565974,36.60349m-13.685983,0a13.685983,13.685983 0 1 0 27.371963,0a13.685983,13.685983 0 1 0 -27.371963,0z"/>
   <path stroke="null" id="svg_76" fill="#524F75" d="m79.565974,52.450417c-8.751827,0 -15.846929,-7.095103 -15.846929,-15.846926s7.095103,-15.846926 15.846929,-15.846926s15.846926,7.0951 15.846926,15.846926s-7.095103,15.846926 -15.846929,15.846926l0.000003,0zm-0.000003,-4.32189c6.364702,0 11.525039,-5.160334 11.525039,-11.525036s-5.160337,-11.525039 -11.525039,-11.525039s-11.525036,5.160337 -11.525036,11.525039s5.160337,11.525036 11.525036,11.525036z"/>
   <path stroke="null" id="svg_77" fill="#FFFBDC" d="m81.726918,34.442546m-7.203149,0a7.203149,7.203149 0 1 0 14.406297,0a7.203149,7.203149 0 1 0 -14.406297,0z"/>
   <path stroke="null" id="svg_78" fill="#FFFFFF" d="m25.542358,35.883176m-10.804722,0a10.804722,10.804722 0 1 0 21.609446,0a10.804722,10.804722 0 1 0 -21.609446,0z"/>
   <path stroke="null" id="svg_79" fill="#524F75" d="m25.542358,48.848844c-7.160649,0 -12.965668,-5.805019 -12.965668,-12.965668s5.805019,-12.965668 12.965668,-12.965668s12.965668,5.805016 12.965668,12.965668s-5.805016,12.965668 -12.965668,12.965668zm0,-4.32189c4.773528,0 8.643778,-3.870253 8.643778,-8.643778s-3.87025,-8.643778 -8.643778,-8.643778s-8.643778,3.87025 -8.643778,8.643778s3.870253,8.643778 8.643778,8.643778z"/>
   <path stroke="null" id="svg_80" fill="#232323" d="m19.846829,38.36178a3.241416,3.241416 0 1 0 -0.787306,-2.183996l2.402972,0.349354l-1.615666,1.834643z"/>
   <path stroke="null" id="svg_81" fill="#5DE4C7" d="m79.261998,85.010088c2.209927,-4.73463 3.603736,-8.751106 4.18143,-12.050148c0.332785,-5.589642 0.332785,-9.357609 0,-11.3039c-0.088599,-0.516465 -0.720317,-1.387326 -1.89515,-2.612581c-3.928598,-1.070389 -6.49724,-4.954327 -5.835991,-9.065164c0.818278,-5.089025 5.367788,-8.724454 10.512277,-8.40031l6.204071,0.391129c4.46019,0.281644 7.998377,3.714663 8.524928,8.03223c1.375801,0.798831 2.765287,2.146541 2.72495,3.86161c-0.087878,3.749958 -2.4714,5.269104 -5.224444,5.657352l-3.877455,0.545998l2.122046,10.173009c0.559686,3.418613 1.755408,6.77384 1.755408,10.994886l-1.755408,13.167354"/>
   <path stroke="null" id="svg_82" fill="#524F75" d="m94.782624,71.774304c0.080676,0.407698 0.169996,0.831242 0.281644,1.334743c0.042497,0.194485 0.086436,0.39185 0.146223,0.657647l0.146225,0.653326c0.658368,2.95041 0.924164,4.652515 0.93641,6.673716l-1.73524,13.022574a2.160944,2.160944 0 1 0 4.283714,0.57049l1.754687,-13.167357c0.012964,-0.094361 0.019447,-0.190161 0.019447,-0.285243c0,-2.477883 -0.302534,-4.450105 -1.040856,-7.75563l-0.146944,-0.656928l-0.142623,-0.641799a53.302578,53.302578 0 0 1 -0.262194,-1.245426a35.885366,35.885366 0 0 1 -0.190882,-1.044456l-1.66681,-8.005579l1.591178,-0.22402c4.185748,-0.589216 6.97841,-3.224128 7.083575,-7.746266c0.049701,-2.13069 -1.119369,-3.906988 -2.915114,-5.207154a11.334875,11.334875 0 0 0 -10.359568,-8.893729l-6.204071,-0.391132c-6.255935,-0.395453 -11.787954,4.025122 -12.782708,10.213345c-0.796668,4.959369 2.122046,9.713446 6.785365,11.304621c0.339268,0.370964 0.603625,0.687903 0.790187,0.945053c0.082115,0.11309 0.14262,0.206012 0.181518,0.273722c0.271559,1.769093 0.265796,5.328169 -0.041779,10.54829c-0.553921,3.067099 -1.880742,6.872524 -3.989824,11.389617a2.160944,2.160944 0 0 0 3.915634,1.82888c2.284117,-4.892377 3.737713,-9.081009 4.352141,-12.591102c0.014406,-0.080676 0.023771,-0.162073 0.028812,-0.244189c0.34287,-5.750992 0.34287,-9.635651 -0.027373,-11.796595c-0.188722,-1.103524 -0.981788,-2.197681 -2.464916,-3.744199a2.163107,2.163107 0 0 0 -0.991152,-0.589216c-2.894946,-0.788745 -4.751199,-3.649114 -4.270747,-6.637703a7.84711,7.84711 0 0 1 8.241842,-6.586557l6.204071,0.391129a7.011545,7.011545 0 0 1 6.51669,6.137083a2.158784,2.158784 0 0 0 1.059583,1.607023c1.066066,0.618752 1.663208,1.375083 1.650241,1.94197c-0.051861,2.232255 -1.136656,3.254382 -3.366031,3.568438l-3.876737,0.545998a2.160944,2.160944 0 0 0 -1.814471,2.580891l2.112685,10.128346c0.060505,0.363759 0.129656,0.739044 0.20817,1.137378z"/>
   <path stroke="null" id="svg_83" fill="#524F75" d="m95.773058,101.071671m-2.521104,0a2.521101,2.521101 0 1 0 5.042205,0a2.521101,2.521101 0 1 0 -5.042205,0z"/>
   <path stroke="null" id="svg_84" fill="#524F75" d="m83.761086,42.94298l-0.674934,4.546629a2.160944,2.160944 0 1 0 4.274346,0.634597l0.675658,-4.546629a2.160944,2.160944 0 0 0 -4.27507,-0.634597zm7.203149,0.720315l-0.674934,4.546629a2.160944,2.160944 0 1 0 4.274346,0.634597l0.675655,-4.546626a2.160944,2.160944 0 0 0 -4.275067,-0.6346z"/>
   <path stroke="null" id="svg_85" fill="#FFFFFF" d="m47.872118,32.2816m-13.685983,0a13.685983,13.685983 0 1 0 27.371965,0a13.685983,13.685983 0 1 0 -27.371965,0z"/>
   <path stroke="null" id="svg_86" fill="#524F75" d="m47.872118,48.128526c-8.751824,0 -15.846926,-7.0951 -15.846926,-15.846926s7.095103,-15.846926 15.846926,-15.846926s15.846926,7.095103 15.846926,15.846926s-7.0951,15.846926 -15.846926,15.846929l0,-0.000003zm0,-4.321887c6.364702,0 11.525039,-5.160337 11.525039,-11.525039s-5.160337,-11.525036 -11.525039,-11.525036s-11.525036,5.160334 -11.525036,11.525036s5.160334,11.525039 11.525036,11.525039z"/>
   <path stroke="null" id="svg_87" fill="#232323" d="m40.998873,35.82627a4.32189,4.32189 0 1 0 -1.050218,-2.912233l3.20396,0.466043l-2.153742,2.44619z"/>
  </g>
  <text stroke="null" transform="matrix(8.085595087704846,0,0,7.6937751329096455,-3684.712430366193,-2641.6465578350962) " xml:space="preserve" text-anchor="start" font-family="'Times New Roman', Times, serif" font-size="24" id="svg_89" y="363.68001" x="477" fill-opacity="null" stroke-opacity="null" stroke-width="0" fill="#000000">ZCLORNE</text>
 </g>
</svg>